<svg width="900" height="1600" viewBox="0 0 900 1600" fill="none" xmlns="http://www.w3.org/2000/svg">
  <defs>
    <linearGradient id="spicey" x1="38" y1="0" x2="830" y2="760" gradientUnits="userSpaceOnUse">
      <stop stop-color="#ff7a18"/>
      <stop offset=".45" stop-color="#ff2e93"/>
      <stop offset="1" stop-color="#8d35ff"/>
    </linearGradient>
    <linearGradient id="glass" x1="0" y1="0" x2="900" y2="1600" gradientUnits="userSpaceOnUse">
      <stop stop-color="#09060f"/>
      <stop offset=".45" stop-color="#050409"/>
      <stop offset="1" stop-color="#0c0612"/>
    </linearGradient>
    <radialGradient id="cityGlow" cx="0" cy="0" r="1" gradientUnits="userSpaceOnUse" gradientTransform="translate(414 672) rotate(78) scale(520 420)">
      <stop stop-color="#ff2e93" stop-opacity=".95"/>
      <stop offset=".32" stop-color="#8d35ff" stop-opacity=".62"/>
      <stop offset=".7" stop-color="#ff7a18" stop-opacity=".34"/>
      <stop offset="1" stop-color="#07030b" stop-opacity=".1"/>
    </radialGradient>
    <filter id="softGlow" x="-50%" y="-50%" width="200%" height="200%">
      <feGaussianBlur stdDeviation="10" result="blur"/>
      <feColorMatrix in="blur" type="matrix" values="1 0 0 0 0.98 0 1 0 0 0.1 0 0 1 0 0.55 0 0 0 0.72 0"/>
      <feBlend in="SourceGraphic"/>
    </filter>
    <filter id="tinyGlow" x="-50%" y="-50%" width="200%" height="200%">
      <feGaussianBlur stdDeviation="4" result="blur"/>
      <feBlend in="SourceGraphic" in2="blur"/>
    </filter>
    <clipPath id="photoShape">
      <path d="M64 326C64 285.13 97.13 252 138 252H763C803.87 252 837 285.13 837 326V1158C837 1198.87 803.87 1232 763 1232H138C97.13 1232 64 1198.87 64 1158V326Z"/>
    </clipPath>
    <clipPath id="innerPhoto">
      <path d="M77 338C77 305.42 103.42 279 136 279H753C785.58 279 812 305.42 812 338V1150C812 1182.58 785.58 1209 753 1209H136C103.42 1209 77 1182.58 77 1150V338Z"/>
    </clipPath>
  </defs>

  <rect width="900" height="1600" fill="url(#glass)"/>
  <path d="M-90 282C162 208 346 400 564 318C706 264 822 176 992 258" stroke="url(#spicey)" stroke-opacity=".36" stroke-width="3"/>
  <path d="M-120 1190C138 1074 286 1210 486 1098C652 1005 742 1036 994 918" stroke="url(#spicey)" stroke-opacity=".5" stroke-width="5" filter="url(#softGlow)"/>

  <text x="450" y="108" text-anchor="middle" font-family="Arial Black, Arial, sans-serif" font-size="62" letter-spacing="14" fill="url(#spicey)" filter="url(#tinyGlow)">SPICEY</text>
  <text x="64" y="190" font-family="Arial, sans-serif" font-size="32" font-weight="700" fill="white">Spicey Aura Card</text>
  <text x="64" y="228" font-family="Arial, sans-serif" font-size="19" fill="#a9a0b6">unique photo post style - not a square, not Instagram</text>

  <path d="M64 326C64 285.13 97.13 252 138 252H763C803.87 252 837 285.13 837 326V1158C837 1198.87 803.87 1232 763 1232H138C97.13 1232 64 1198.87 64 1158V326Z" fill="url(#spicey)" opacity=".9" filter="url(#softGlow)"/>
  <path d="M70 332C70 292.24 102.24 260 142 260H759C798.76 260 831 292.24 831 332V1154C831 1193.76 798.76 1226 759 1226H142C102.24 1226 70 1193.76 70 1154V332Z" fill="#050407"/>

  <g clip-path="url(#innerPhoto)">
    <rect x="77" y="279" width="735" height="930" fill="#090610"/>
    <rect x="77" y="279" width="735" height="930" fill="url(#cityGlow)"/>
    <rect x="77" y="279" width="735" height="930" fill="url(#spicey)" opacity=".13"/>
    <path d="M86 1015C188 952 267 963 357 1008C440 1050 515 1063 605 1017C681 979 736 967 820 1003V1209H86V1015Z" fill="#07040a" opacity=".72"/>
    <path d="M72 595C186 518 311 546 442 494C568 443 662 372 836 426" stroke="#ff2e93" stroke-opacity=".42" stroke-width="3" filter="url(#softGlow)"/>
    <path d="M68 820C206 740 338 799 462 713C575 634 681 621 834 690" stroke="#ff7a18" stroke-opacity=".34" stroke-width="3" filter="url(#softGlow)"/>

    <g opacity=".78">
      <rect x="114" y="690" width="42" height="330" rx="8" fill="#171023"/>
      <rect x="178" y="590" width="58" height="430" rx="8" fill="#1d1031"/>
      <rect x="260" y="650" width="42" height="370" rx="8" fill="#150d26"/>
      <rect x="329" y="518" width="76" height="502" rx="10" fill="#23113b"/>
      <rect x="432" y="610" width="52" height="410" rx="8" fill="#1a0d2d"/>
      <rect x="512" y="548" width="84" height="472" rx="9" fill="#240f33"/>
      <rect x="624" y="640" width="48" height="380" rx="8" fill="#170b23"/>
      <rect x="704" y="526" width="70" height="494" rx="9" fill="#241039"/>
    </g>
    <g opacity=".9" filter="url(#tinyGlow)">
      <circle cx="130" cy="650" r="4" fill="#ff7a18"/>
      <circle cx="210" cy="610" r="4" fill="#ff2e93"/>
      <circle cx="365" cy="540" r="5" fill="#8d35ff"/>
      <circle cx="545" cy="584" r="4" fill="#ff7a18"/>
      <circle cx="730" cy="564" r="5" fill="#ff2e93"/>
      <circle cx="610" cy="708" r="4" fill="#8d35ff"/>
      <circle cx="282" cy="760" r="4" fill="#ff7a18"/>
    </g>
    <path d="M77 855H812V1209H77V855Z" fill="url(#glass)" opacity=".5"/>
  </g>

  <circle cx="134" cy="338" r="42" fill="url(#spicey)"/>
  <circle cx="134" cy="338" r="36" fill="#120817"/>
  <circle cx="134" cy="338" r="31" fill="#c16a4c"/>
  <text x="194" y="330" font-family="Arial, sans-serif" font-size="28" font-weight="800" fill="white">Sophia Laurent</text>
  <circle cx="418" cy="320" r="14" fill="#8d35ff"/>
  <path d="M411 320L416 325L426 314" stroke="white" stroke-width="4" stroke-linecap="round" stroke-linejoin="round"/>
  <text x="194" y="362" font-family="Arial, sans-serif" font-size="19" fill="#a99bb7">@sophia.laurent - 5m ago</text>
  <circle cx="762" cy="340" r="35" fill="#0d0a12" fill-opacity=".72" stroke="#ffffff" stroke-opacity=".08"/>
  <text x="762" y="350" text-anchor="middle" font-family="Arial, sans-serif" font-size="32" font-weight="900" fill="white">...</text>

  <text x="116" y="1042" font-family="Arial, sans-serif" font-size="34" font-weight="800" fill="white">Neon rooftop energy ✨</text>
  <text x="116" y="1090" font-family="Arial, sans-serif" font-size="27" font-weight="700" fill="#ff7a18">#NightVibes</text>
  <text x="310" y="1090" font-family="Arial, sans-serif" font-size="27" font-weight="700" fill="#ff2e93">#SpiceyLife</text>
  <text x="525" y="1090" font-family="Arial, sans-serif" font-size="27" font-weight="700" fill="#c14cff">#GlowUp</text>

  <g filter="url(#tinyGlow)">
    <circle cx="812" cy="502" r="34" fill="#130b19" fill-opacity=".82" stroke="url(#spicey)" stroke-width="1.5"/>
    <text x="812" y="515" text-anchor="middle" font-size="34">❤️</text>
    <text x="812" y="557" text-anchor="middle" font-family="Arial, sans-serif" font-size="18" fill="white">7.8K</text>
    <circle cx="812" cy="642" r="34" fill="#130b19" fill-opacity=".82" stroke="url(#spicey)" stroke-width="1.5"/>
    <text x="812" y="655" text-anchor="middle" font-size="36">🔥</text>
    <text x="812" y="697" text-anchor="middle" font-family="Arial, sans-serif" font-size="18" fill="white">1.2K</text>
    <circle cx="812" cy="782" r="34" fill="#130b19" fill-opacity=".82" stroke="url(#spicey)" stroke-width="1.5"/>
    <text x="812" y="795" text-anchor="middle" font-size="34">😮</text>
    <text x="812" y="837" text-anchor="middle" font-family="Arial, sans-serif" font-size="18" fill="white">96</text>
    <circle cx="812" cy="922" r="34" fill="#130b19" fill-opacity=".82" stroke="url(#spicey)" stroke-width="1.5"/>
    <text x="812" y="935" text-anchor="middle" font-size="31">💬</text>
    <text x="812" y="977" text-anchor="middle" font-family="Arial, sans-serif" font-size="18" fill="white">321</text>
  </g>

  <rect x="164" y="1268" width="572" height="78" rx="39" fill="#130b19" stroke="url(#spicey)" stroke-width="2"/>
  <text x="450" y="1319" text-anchor="middle" font-family="Arial, sans-serif" font-size="28" font-weight="800" fill="white">🔥 1.2K   ·   ❤️ 7.8K   ·   😮 96</text>
  <text x="450" y="1402" text-anchor="middle" font-family="Arial, sans-serif" font-size="24" fill="#a99bb7">Liked by Valon, Ardian · 321 comments · 89 shares</text>
</svg>
