<svg width="900" height="1600" viewBox="0 0 900 1600" fill="none" xmlns="http://www.w3.org/2000/svg">
  <defs>
    <linearGradient id="brand" x1="80" y1="220" x2="820" y2="1320" gradientUnits="userSpaceOnUse">
      <stop stop-color="#ff7a18"/>
      <stop offset=".45" stop-color="#ff2e93"/>
      <stop offset="1" stop-color="#8b35ff"/>
    </linearGradient>
    <linearGradient id="photo" x1="92" y1="330" x2="790" y2="1110" gradientUnits="userSpaceOnUse">
      <stop stop-color="#17102a"/>
      <stop offset=".34" stop-color="#39144a"/>
      <stop offset=".62" stop-color="#a01867"/>
      <stop offset="1" stop-color="#ff7622"/>
    </linearGradient>
    <radialGradient id="sun" cx="0" cy="0" r="1" gradientUnits="userSpaceOnUse" gradientTransform="translate(615 590) rotate(104) scale(320 250)">
      <stop stop-color="#ffb33d"/>
      <stop offset=".25" stop-color="#ff2e93" stop-opacity=".76"/>
      <stop offset=".72" stop-color="#8b35ff" stop-opacity=".22"/>
      <stop offset="1" stop-color="#07040c" stop-opacity="0"/>
    </radialGradient>
    <filter id="soft" x="-50%" y="-50%" width="200%" height="200%">
      <feGaussianBlur stdDeviation="8"/>
    </filter>
    <filter id="glow" x="-50%" y="-50%" width="200%" height="200%">
      <feGaussianBlur stdDeviation="5" result="b"/>
      <feBlend in="SourceGraphic" in2="b"/>
    </filter>
    <clipPath id="cardClip">
      <path d="M58 330C58 290.8 89.8 259 129 259H770C809.2 259 841 290.8 841 330V1068C841 1107.2 809.2 1139 770 1139H129C89.8 1139 58 1107.2 58 1068V330Z"/>
    </clipPath>
  </defs>

  <rect width="900" height="1600" fill="#050407"/>
  <path d="M-120 258C92 182 238 292 422 226C596 164 720 120 1012 214" stroke="url(#brand)" stroke-opacity=".22" stroke-width="4"/>
  <path d="M-80 1260C170 1120 310 1228 510 1122C676 1034 784 1044 1010 930" stroke="url(#brand)" stroke-opacity=".35" stroke-width="5" filter="url(#soft)"/>

  <text x="450" y="96" text-anchor="middle" font-family="Arial Black, Arial, sans-serif" font-size="58" letter-spacing="10" fill="url(#brand)" filter="url(#glow)">SPICEY</text>
  <text x="54" y="174" font-family="Arial, sans-serif" font-size="34" font-weight="800" fill="white">Home Feed Photo Card</text>
  <text x="54" y="213" font-family="Arial, sans-serif" font-size="20" fill="#9e94aa">clean Spicey identity, not Instagram square</text>

  <rect x="46" y="247" width="808" height="904" rx="82" fill="url(#brand)" opacity=".95"/>
  <rect x="51" y="252" width="798" height="894" rx="78" fill="#050407"/>

  <g clip-path="url(#cardClip)">
    <rect x="58" y="259" width="783" height="880" fill="url(#photo)"/>
    <rect x="58" y="259" width="783" height="880" fill="url(#sun)"/>
    <path d="M58 770C154 672 272 718 384 630C505 535 642 492 841 548V1139H58V770Z" fill="#050407" opacity=".18"/>
    <path d="M76 490C198 438 342 488 474 414C590 350 716 356 844 410" stroke="#ff2e93" stroke-opacity=".32" stroke-width="4" filter="url(#glow)"/>
    <path d="M54 800C206 704 350 772 496 678C632 590 720 626 858 555" stroke="#ff7a18" stroke-opacity=".28" stroke-width="5" filter="url(#glow)"/>

    <g opacity=".78">
      <rect x="100" y="650" width="54" height="292" rx="9" fill="#171022"/>
      <rect x="184" y="560" width="72" height="382" rx="10" fill="#25123a"/>
      <rect x="294" y="610" width="56" height="332" rx="9" fill="#1c0e2f"/>
      <rect x="390" y="520" width="88" height="422" rx="10" fill="#2b1240"/>
      <rect x="526" y="610" width="66" height="332" rx="9" fill="#180d26"/>
      <rect x="630" y="545" width="92" height="397" rx="10" fill="#271137"/>
    </g>

    <rect x="58" y="806" width="783" height="333" fill="url(#photo)" opacity=".12"/>
    <rect x="58" y="845" width="783" height="294" fill="url(#brand)" opacity=".08"/>
    <rect x="58" y="840" width="783" height="299" fill="#050407" opacity=".46"/>
  </g>

  <circle cx="126" cy="342" r="42" fill="url(#brand)"/>
  <circle cx="126" cy="342" r="35" fill="#120815"/>
  <circle cx="126" cy="342" r="30" fill="#b65a42"/>
  <text x="188" y="333" font-family="Arial, sans-serif" font-size="27" font-weight="800" fill="white">Sophia Laurent</text>
  <circle cx="410" cy="322" r="13" fill="#8b35ff"/>
  <path d="M403 322L408 327L418 316" stroke="white" stroke-width="3.8" stroke-linecap="round" stroke-linejoin="round"/>
  <text x="188" y="365" font-family="Arial, sans-serif" font-size="18" fill="#b9b0c2">@sophia.laurent · 5m ago</text>
  <circle cx="780" cy="340" r="34" fill="#0e0a12" fill-opacity=".7" stroke="white" stroke-opacity=".1"/>
  <text x="780" y="350" text-anchor="middle" font-family="Arial, sans-serif" font-size="34" font-weight="900" fill="white">...</text>

  <g filter="url(#glow)">
    <circle cx="828" cy="510" r="35" fill="#100b16" fill-opacity=".82" stroke="url(#brand)" stroke-width="1.6"/>
    <text x="828" y="523" text-anchor="middle" font-size="34">❤️</text>
    <circle cx="828" cy="640" r="35" fill="#100b16" fill-opacity=".82" stroke="url(#brand)" stroke-width="1.6"/>
    <text x="828" y="653" text-anchor="middle" font-size="34">🔥</text>
    <circle cx="828" cy="770" r="35" fill="#100b16" fill-opacity=".82" stroke="url(#brand)" stroke-width="1.6"/>
    <text x="828" y="783" text-anchor="middle" font-size="33">😮</text>
    <circle cx="828" cy="900" r="35" fill="#100b16" fill-opacity=".82" stroke="url(#brand)" stroke-width="1.6"/>
    <text x="828" y="913" text-anchor="middle" font-size="31">💬</text>
    <circle cx="828" cy="1030" r="35" fill="#100b16" fill-opacity=".82" stroke="url(#brand)" stroke-width="1.6"/>
    <text x="828" y="1043" text-anchor="middle" font-size="31">↗</text>
  </g>

  <text x="96" y="990" font-family="Arial, sans-serif" font-size="34" font-weight="800" fill="white">Neon rooftop energy ✨</text>
  <text x="96" y="1039" font-family="Arial, sans-serif" font-size="27" font-weight="800" fill="#ff7a18">#NightVibes</text>
  <text x="288" y="1039" font-family="Arial, sans-serif" font-size="27" font-weight="800" fill="#ff2e93">#SpiceyLife</text>
  <text x="500" y="1039" font-family="Arial, sans-serif" font-size="27" font-weight="800" fill="#bd55ff">#GlowUp</text>

  <rect x="156" y="1208" width="588" height="78" rx="39" fill="#120b17" stroke="url(#brand)" stroke-width="2"/>
  <text x="450" y="1259" text-anchor="middle" font-family="Arial, sans-serif" font-size="28" font-weight="800" fill="white">🔥 1.2K    ❤️ 7.8K    😮 96</text>
  <text x="450" y="1346" text-anchor="middle" font-family="Arial, sans-serif" font-size="24" fill="#aaa0b5">Liked by Valon, Ardian · 321 comments · 89 shares</text>

  <rect x="76" y="1426" width="748" height="94" rx="47" fill="#100c14" fill-opacity=".92" stroke="white" stroke-opacity=".08"/>
  <circle cx="450" cy="1473" r="62" fill="url(#brand)" filter="url(#glow)"/>
  <text x="450" y="1496" text-anchor="middle" font-family="Arial, sans-serif" font-size="72" fill="white">+</text>
  <text x="138" y="1482" text-anchor="middle" font-size="36">🏠</text>
  <text x="290" y="1482" text-anchor="middle" font-size="35">💬</text>
  <text x="610" y="1482" text-anchor="middle" font-size="34">⚡</text>
  <text x="758" y="1482" text-anchor="middle" font-size="35">👤</text>
</svg>
