<svg width="96" height="96" viewBox="0 0 96 96" fill="none" xmlns="http://www.w3.org/2000/svg">
  <defs>
    <linearGradient id="spiceyS" x1="18" y1="12" x2="82" y2="86" gradientUnits="userSpaceOnUse">
      <stop offset="0" stop-color="#FFE94A"/>
      <stop offset="0.22" stop-color="#FF8A00"/>
      <stop offset="0.48" stop-color="#FF2D55"/>
      <stop offset="0.72" stop-color="#F61FC8"/>
      <stop offset="1" stop-color="#8B35FF"/>
    </linearGradient>
    <linearGradient id="spiceyEdge" x1="24" y1="10" x2="70" y2="88" gradientUnits="userSpaceOnUse">
      <stop offset="0" stop-color="#FFF56A"/>
      <stop offset="0.45" stop-color="#FF6A00"/>
      <stop offset="1" stop-color="#FF2DCE"/>
    </linearGradient>
    <filter id="softGlow" x="-22" y="-22" width="140" height="140" filterUnits="userSpaceOnUse">
      <feGaussianBlur stdDeviation="4.5" result="blur"/>
      <feColorMatrix in="blur" type="matrix" values="1 0 0 0 1 0 0 0 0 0.2 0 0 0 0 0.63 0 0 0 0.55 0"/>
      <feBlend in="SourceGraphic" mode="normal"/>
    </filter>
  </defs>
  <path opacity="0.48" d="M13 54L48 40L82 17L52 50L20 64L13 54Z" fill="#FF8A00" filter="url(#softGlow)"/>
  <path d="M66.5 8.5C51.3 16.9 37 27.9 27.6 40.4C22.1 47.7 24.7 55.5 34.5 57.1L54.7 60.4C58.1 61 58.8 63.7 55.6 65.4C45.4 70.8 34.1 78.7 23.3 89.2C39.5 81.9 56.2 72.2 67.9 59.2C75.3 51.1 72.2 42.2 61.4 40.7L42.8 38.1C39.2 37.6 38.5 35.1 41.6 33.1C49.7 27.7 58.4 19.8 66.5 8.5Z" fill="url(#spiceyS)"/>
  <path d="M66.5 8.5C51.3 16.9 37 27.9 27.6 40.4C22.1 47.7 24.7 55.5 34.5 57.1L54.7 60.4C58.1 61 58.8 63.7 55.6 65.4C45.4 70.8 34.1 78.7 23.3 89.2C39.5 81.9 56.2 72.2 67.9 59.2C75.3 51.1 72.2 42.2 61.4 40.7L42.8 38.1C39.2 37.6 38.5 35.1 41.6 33.1C49.7 27.7 58.4 19.8 66.5 8.5Z" stroke="url(#spiceyEdge)" stroke-width="2.6" stroke-linejoin="round"/>
  <path d="M38 43.6C44.4 40 51.3 34.6 58.1 26.1" stroke="#FFF36D" stroke-width="2.3" stroke-linecap="round" opacity="0.82"/>
  <path d="M39.5 72.4C46.4 68.8 52.1 65.3 57.6 60.8" stroke="#FF9A1E" stroke-width="2" stroke-linecap="round" opacity="0.64"/>
</svg>
